<?xml version="1.0" encoding="UTF-8"?>
<svg version="1.1" viewBox="0 0 1500 1500" width="1500" height="1500" xmlns="http://www.w3.org/2000/svg">
<path transform="translate(749,16)" d="m0 0 5 2 233 152 115 75 26 17 14 9v164l32-6 46-8 1 1v49h3v100l164-29 3 1-29 131-17 77v5l13 20 14 22 16 25 14 22 32 50 14 22 12 19v2l-20 4-169 30-125 22h-2v239l-15 10-52 34-43 28-186 121-89 58-8 5-5-2-20-13-23-15-187-122-95-62-52-34-11-7v-164l-32 6-46 8-1-1v-149l-8 2-153 27-3-1 27-122 19-86v-5l-13-20-14-22-16-25-14-22-32-50-14-22-12-19v-2l20-4 186-33 102-18h2v-240l18-12 23-15 63-41 66-43 43-28 66-43 43-28 43-28 20-13z" fill="#165C2A"/>
<path transform="translate(639,175)" d="m0 0h2l2 20 4 17 7 16 6 11 11 14 7 7 15 11 15 8 15 5 15 3h27l15-3 15-5 17-9 14-11 9-9 9-12 8-15 6-17 3-17 1-12 12 7 15 10 17 11 80 52 26 17 19 12 15 10 26 17v135l-73 13-232 41-256 45-80 14h-4v-248l27-18 16-10 26-17 20-13 37-24 37-24 37-24z" fill="#FEFEFE"/>
<path transform="translate(1068,944)" d="m0 0h5v243l-22 14-26 17-20 13-37 24-17 11-9 5v-33l-3-23-5-19-10-24-8-15-12-18-13-16-16-16-16-12-15-9-19-9-18-6-17-4-15-2-20-1-19 1-25 4-21 6-20 8-21 11-20 14-13 12-10 10-11 15-9 15-11 23-7 21-5 24-2 20v24l-5-2-120-78-8-5v-130l544-96z" fill="#FEFEFE"/>
<path transform="translate(1388,542)" d="m0 0 3 1-29 131-17 77v5l13 20 14 22 16 25 14 22 32 50 14 22 12 19v2l-20 4-169 30-125 22h-2v239l-15 10-52 34-43 28-186 121-89 58-8 5-5-2-20-13-23-15-187-122-95-62-52-34-11-7v-164l13-3 30-5v145l5 2 15 10 25 16 20 13 25 16 23 15 17 11 25 16 17 11 25 16 34 22 25 16 17 11 25 16 51 33 8-4 15-10 19-12 17-11 25-16 17-11 22-14 17-11 25-16 17-11 25-16 17-11 25-16 54-35 25-16 21-14 1-268 25-5 18-3 1 1v38l20-4 101-18 153-27v-2l-15-24-11-17-16-25-14-22-32-50-12-19 1-10 38-172 1-4-30 5-101 18h-3v-28l108-19z" fill="#FEFEFE"/>
<path transform="translate(749,16)" d="m0 0 5 2 233 152 115 75 26 17 14 9v164l-7 2-36 6v-145l-5-2-15-10-26-17-29-19-20-13-23-15-115-75-12-8-19-12-11-8-15-9-49-32-6-4v-2h-5l-20 13-17 11-25 16-17 11-16 10-10 7-117 76-17 11-22 14-15 10-60 39-12 8-1 268-8 2-35 6-1-1v-37l-20 4-248 44v2l15 24 11 17 14 22 48 75 12 19-1 10-39 176 102-18 24-4h5v27l-8 2-153 27-3-1 27-122 19-86v-5l-13-20-14-22-16-25-14-22-32-50-14-22-12-19v-2l20-4 186-33 102-18h2v-240l18-12 23-15 63-41 66-43 43-28 66-43 43-28 43-28 20-13z" fill="#FEFEFE"/>
<path transform="translate(1219,448)" d="m0 0h2v23l-7 2-931 165h-4v-24l32-6 159-28 289-51 369-65z" fill="#FEFEFE"/>
<path transform="translate(1218,867)" d="m0 0h3v23l-811 143-131 23v-23l64-11 169-30 508-90z" fill="#FEFEFE"/>
<path transform="translate(586,617)" d="m0 0h2l6 19 17 59 7 19 6 13-21 4-23 4h-6l-1-16-3-13v-3l-22 4-6 1-3 12-4 14-2 9-26 5-13 5-8 2h-13l-6-3-6-7-5-11-6-25-3-6-1-1-1-14 7-4 3-6 1-4v-11l-2-3-9-1-4 59v40l-6 2-35 6h-4l1-12 3-28 2-29v-46l7-2 26-5 28-7 13-1 9 3 6 7 2 5 1 12-2 9-6 10-7 6-5 3 10 4 7 7 4 10 5 16 7 11h2l10-22 13-33 22-57 5-3z" fill="#FEFEFE"/>
<path transform="translate(680,1190)" d="m0 0h16l10 4 13 8 19 10 10 8 5 6 2 9v31l-3 21-1 3-23 12-30 14-10 4h-11l-11-4-12-7-13-10-5-5-5-8-3-11v-37l2-11 6-12 6-7 11-7 20-9z" fill="#FEFEFE"/>
<path transform="translate(767,1107)" d="m0 0h24l12 3 17 8 11 7 5 5 4 5 1 9-8 31-6 14-9 10-8 3-42 12-9 2-40-20-15-8-5-6-1-4v-11l5-24 4-12 6-9 7-3 28-8z" fill="#FEFEFE"/>
<path transform="translate(926,709)" d="m0 0h13l12 3 9 6 6 7 4 10 1 5v22l-4 20-7 16-9 12-8 7-10 6-13 5-10 2-27 3-21 3 4-33 3-43v-40l36-7 13-3z" fill="#FEFEFE"/>
<path transform="translate(849,573)" d="m0 0h6l-4 36-3 50v29l-8 2-29 5h-6l3-48 1-3-26 4-6 1-1 33v19l-40 7h-5l4-36 3-46v-34l41-7h2l-2 37-1 9 25-4 7-1v-46z" fill="#FEFEFE"/>
<path transform="translate(812,727)" d="m0 0h15l8 4 5 8 1 3v17l-6 12-9 8-4 2 12 6 6 8 5 16 4 10 6 8 3 3-1 5-12 5-10 3-11 1-8-3-5-5-5-8-4-12-5-21-1-4h-2l-1-15 7-4 3-6 1-5v-8l-3-5-8-1-4 56v44l-40 7h-5l1-14 3-30 2-29v-42l8-2 26-5z" fill="#FEFEFE"/>
<path transform="translate(672,154)" d="m0 0h1l5 21 7 20 8 16 8 14 10 14 9 11 7 8 3 2v2l4 2 10 9 8 5 11-8 13-12 9-9 11-14 10-15 9-17 9-23 6-23 5 2 20 13 1 1v19l-4 18-7 17-7 11-8 10-11 11-15 10-14 7-17 5-15 2h-14l-18-3-15-5-17-9-14-11-9-9-10-14-8-17-5-18-1-7v-20l17-11z" fill="#FEFEFE"/>
<path transform="translate(754,1296)" d="m0 0h7l29 9 16 7 10 8 2 2 3 20v8l-18 12-37 24-15 10-9-5-43-28-10-7-1-1v-27l12-7 28-13z" fill="#FEFEFE"/>
<path transform="translate(861,1134)" d="m0 0h11l16 4 12 6 11 15 10 19 8 22 3 16v18l-4 11-4 3-14 3h-29l-7-2-10-11-10-13-14-18-6-9 1-9 9-38 4-10 6-5z" fill="#FEFEFE"/>
<path transform="translate(718,124)" d="m0 0 4 1 2 3v31l-4 6 4 3v51l-4 6h-2l2 3h10l4 10 6 5 8 2-7-11-2-8v-96l3-5 1 2h31v1h-32l-1 32 12-2 7 1 16 1v1l-12 1 1 5h11v1h-11l-1 6h8v1l-10 1-7 1v2l10 2v2h-7l-6-5-1-6 8 2 2-1 1-7-2-4-7-1-4 2-2 4v9l5 8 5 3h13l9-4 8-7 7-14 1-5v-23h2l2 15-1 9-1 2h25v-7h3l-2 12-6 21-9 21-9 16-14 19-8 8-2 3h-2v2l-8 7-12 9-4-1-9-7-10-9-9-9-13-17-9-15-11-23-6-18-4-18 1-5 2 4 1 7 39-1v-30l-7-1v-1l5-1z" fill="#FEFEFE"/>
<path transform="translate(654,757)" d="m0 0 4 1-8 27-10 27-13 30-13 28-6 9-34 9h-2l-9-24-17-48-9-21-8-14v-2l21-4 29-5h5l2 10 4 19 13 41v3h2l2-6 11-26 8-24 3-16 1-9 7-2z" fill="#FEFEFE"/>
<path transform="translate(934,557)" d="m0 0h5l16 55 8 27 6 16 5 10v2l-46 8h-4v-9l-2-15-1-8-20 3-8 2-7 24-2 10-20 4-8 1 10-23 11-26 18-47 10-26z" fill="#FEFEFE"/>
<path transform="translate(706,292)" d="m0 0 11 3 1 2-6 52-1 2h2l1-5 19-46 4-1 8 1 1 1-1 27-6 100-1 11-14-1-11-2-1-5 10-59v-3l-12 19-15 24h-1l-1-48-1-4-16 37-9 21-5-1-15-9-2-4 12-23 12-22 13-24 13-23 10-19z" fill="#165C2A"/>
<path transform="translate(730,744)" d="m0 0h4v12l-1 10-27-1-1 25-1 3 15-4 5-1-1 22-20 1-1 36 21-7 5-3h2l-1 18-2 5-64 11h-5l1-14 3-30 2-29v-42l8-2z" fill="#FEFEFE"/>
<path transform="translate(1053,688)" d="m0 0h3v12l-1 10h-27l-1 24-1 4 18-6h2l-1 22-20 1-1 36 16-5 9-4h3l-1 18-1 4-70 12 1-14 3-30 2-29v-43l27-5z" fill="#FEFEFE"/>
<path transform="translate(701,596)" d="m0 0h21l-1 11-3 11-5-2-6-2h-11l-10 5-6 10-4 14-2 16v26l3 11 5 5h11l12-5 11-7 1 2 1 19-16 6-12 3-7 1h-19l-13-4-8-6-7-8-5-13-1-8v-11l3-18 6-15 6-10 9-10 8-7 10-6 14-5z" fill="#FEFEFE"/>
<path transform="translate(819,281)" d="m0 0 7 1 8 6 10 9 13 12 6 9 2 7-1 7-1 3 23 15 17 11-1 4-7 9-4 5-5-2-14-12-14-11-7-6h-6l4 8 16 23 8 12 1 4-14 11-6 4-3-1-23-46-11-23-22-45 1-3 16-8z" fill="#165C2A"/>
<path transform="translate(594,1189)" d="m0 0 7 4 13 10 7 7 3 6v18l-2 25v28l-5 12-4 6-5-1-15-10-20-13-6-4-1-7v-28l3-23 3-10 6-8 11-9z" fill="#FEFEFE"/>
<path transform="translate(890,1256)" d="m0 0 35 1 4 4 2 6 1 11-18 12-37 24-37 24-12 8h-1l-1-19 1-9 7-12 10-13 13-16 8-10 5-5 7-4z" fill="#FEFEFE"/>
<path transform="translate(739,1072)" d="m0 0h40l6 3 3 3 1 3v7l-3 6-5 5-26 4-25 6-26 9-2 1h-16l-19-2-17-1-4-4 1-7 7-6 16-9 16-7 16-5 19-4z" fill="#FEFEFE"/>
<path transform="translate(774,298)" d="m0 0 2 2 2 7v5l-15 2 2 12 2 21 17-3 4 1 4 16-9 3-14 2 2 12 4 34 11-1 15-4 4 1 5 19v4l-19 5-19 3-23 1-1-1 1-66 1-50 1-22 1-1z" fill="#165C2A"/>
<path transform="translate(661,262)" d="m0 0 4 2 8 7-6 9-16 21-14 19-16 21-14 19-5 5-8-10-4-7 1-4 7-7 7-8 3-3-2-5-8-14v-2l-17 7-4 2h-3l-4-11-1-8 53-19 37-13z" fill="#165C2A"/>
<path transform="translate(841,261)" d="m0 0 8 1 49 17 37 13 1 4-5 15-5-1-16-7h-2l-8 16 1 4 17 17-4 8-7 11h-3l-13-17-11-13-33-42-13-16 1-4 5-5z" fill="#165C2A"/>
<path transform="translate(684,281)" d="m0 0 6 2 5 3-1 4-14 18-12 16-16 21-14 19-3 5 8 8 7 5-1 5-9 15-7-4-15-14-9-9-4-5 2-4 12-13 7-8 12-13 9-10 11-12 7-8 12-13z" fill="#165C2A"/>
<path transform="translate(635,225)" d="m0 0h4l10 19v9l-7 8-22 11-3 1h-12l-8-4-4-5-3-11v-3l-19 6-8 1v-18l5-2z" fill="#165C2A"/>
<path transform="translate(787,295)" d="m0 0h4l16 36 11 25 20 45 6 13v2l-23 11h-3l-29-96-10-33z" fill="#165C2A"/>
<path transform="translate(741,189)" d="m0 0h16l7 1 6-1h43l-4 11-4 8h-2l-1 5-6 9-3 5-1 1h-50l-1-7z" fill="#165C2A"/>
<path transform="translate(868,227)" d="m0 0h8l10 2-4 11h-8l-2 2 1 5 5 2h7l16-11 7-3h16l9 3 6 5 3 6v17l-4 11-5 4-6 2-11-1-9-4 1-7 3-9 11 1 2-7-1-3-5-2h-8l-9 6-11 7-3 1h-10l-14-6-6-5-2-4v-7l6-12z" fill="#165C2A"/>
<path transform="translate(1052,569)" d="m0 0 4 4 9 13v2h24v4l-12 16 3 11 3 9v4l-11-3-12-4-17 12h-4l1-24-5-2-13-10v-3l19-6h3l3-12 4-10z" fill="#FEFEFE"/>
<path transform="translate(441,829)" d="m0 0 3 1 11 16 1 1 24 1-2 5-11 14 2 9 4 13v2l-7-1-14-5-5 1-15 11h-3v-24l-14-10-4-3 1-3 21-6 7-21z" fill="#FEFEFE"/>
<path transform="translate(916,727)" d="m0 0 6 1 4 5 3 12v27l-3 22-4 11-8 7-7 1v-30l3-46 1-9z" fill="#165C2A"/>
<path transform="translate(718,124)" d="m0 0 4 1 2 3v31l-4 6 4 3v51l-4 6h-2l2 3h10l4 10 6 5 8 2-7-11-2-8v-96l3-5 1 2h31v1h-32l-1 32 12-2 7 1 16 1v1l-12 1 1 5h11v1h-11l-1 6h8v1l-10 1-7 1v2l10 2v2h-7l-6-5-1-6 8 2 2-1 1-7-2-4-7-1-4 2-2 4v9l5 8 5 3h13l8-2v2l33 1v1l-41 1-8 1-5-1-16-1 1 27v12h49v1h-48l1 6h41v1l-39 1 3 4 31 1v1l-27 1v2l-2 1h-8l-7-3-14-2-4-5-5-6 2-4v-3l5-4 1-5v-20l1-6-2-1h2v-6l-2-1h2v-6l-2-1h2l-1-5-4-2v-4-3l4-1v-30l-7-1v-1l5-1z" fill="#F2F5F3"/>
<path transform="translate(742,128)" d="m0 0h35l1 3v9l-3 6v3l3 11h-18l-7-1-3 1h-9v-29z" fill="#165C2A"/>
<path transform="translate(795,134)" d="m0 0h2l2 15-1 9-1 2h25v-7h3l-2 12-6 21-5 12h-2l1-5v-4l-34-1 3-5 7-7 7-14 1-5z" fill="#FEFEFE"/>
<path transform="translate(691,189)" d="m0 0h31v28l-3 5-4 4 1 2h-5l-3-4v-3h-2l-6-10-6-12-3-7z" fill="#165C2A"/>
<path transform="translate(755,113)" d="m0 0h9l10 7 4 5 2 6v9l-3 8 3 9v11l-4 8-6 5-5 1-7-1-4-4 2-1 6-1 2-1 1-7-2-6 15-1-4-11v-3l3-6v-12l-34-1-1-4 6-7z" fill="#FEFEFE"/>
<path transform="translate(635,1115)" d="m0 0 4 1-2 4-13 13-9 11-12 17-10 17-3 6-5 4-6 2 3-9 12-23 8-12 9-11 9-10 9-8z" fill="#FEFEFE"/>
<path transform="translate(816,296)" d="m0 0h7l10 11 9 12 2 4v5l-4 5-5 2-7-10-13-20-3-6z" fill="#FEFEFE"/>
<path transform="translate(724,243)" d="m0 0h12l7 3h10l-1-3h28l-5 6h-2l-2 4-2 2h-35l-5-6-5-5z" fill="#165C2A"/>
<path transform="translate(688,906)" d="m0 0h3l8 26-5 1-3-9v-2l-8 2-5 12-6 1-4-4-3-6v-2l-3-1v-2l4-2 1-6-4-1h-2v12l-1 14h-5l2-27 6-2h6l2 2v7l-4 4 4 4 3 7 2 1 1-5 9-22z" fill="#FEFEFE"/>
<path transform="translate(642,285)" d="m0 0 3 1-7 8-8 8-7 8-3 2-4-5-4-7 1-3z" fill="#FEFEFE"/>
<path transform="translate(776,145)" d="m0 0 4 12v11l-4 8-6 5-5 1-7-1-4-4 2-1 6-1 2-1 1-7-2-6 15-1-4-11z" fill="#FEFEFE"/>
<path transform="translate(629,239)" d="m0 0h2l3 6-1 4-6 4-12 4-7-1-2-5v-5l9-3z" fill="#FEFEFE"/>
<path transform="translate(618,918)" d="m0 0h4l2 27-5 1-2-20-7 17-3-1-4-13-3 12-2 9h-3l4-19 2-10h5l4 14 6-15z" fill="#FEFEFE"/>
<path transform="translate(743,229)" d="m0 0h48l-3 5-1 1h-43z" fill="#165C2A"/>
<path transform="translate(862,283)" d="m0 0 10 3 20 8 1 4-6 10-4-2-10-10-7-8z" fill="#FEFEFE"/>
<path transform="translate(766,892)" d="m0 0h10l4 4 1 2v10l-4 8-8 5h-8l-5-4-1-2v-11l3-6 6-5zm1 2-5 4-3 7v9l4 5 7-1 5-5 2-6v-7l-3-5-1-1z" fill="#FEFEFE"/>
<path transform="translate(908,600)" d="m0 0 2 2 6 22-1 3-11 2h-5z" fill="#165C2A"/>
<path transform="translate(558,661)" d="m0 0 2 4 5 18v4l-16 3 2-9 6-19z" fill="#165C2A"/>
<path transform="translate(790,888)" d="m0 0h8l2 2v6l-4 5 3 3 5 10h-5l-3-4-3-7-2-1v-2l4-3v-6l-5-1-1 26-5 1 2-28z" fill="#FEFEFE"/>
<path transform="translate(567,927)" d="m0 0 4 1 7 23v2l-5 1-2-11-9 1-3 10-2 3h-2l1-5 10-24z" fill="#FEFEFE"/>
<path transform="translate(688,906)" d="m0 0h3l8 26-5 1-3-9v-2l-8 2-5 12-3-1 11-27z" fill="#FEFEFE"/>
<path transform="translate(913,867)" d="m0 0 2 3 7 22v2h-5l-2-6v-4l-9 2-4 11-4 1 5-13 7-17z" fill="#FEFEFE"/>
<path transform="translate(834,881)" d="m0 0h4l7 23v3l-4 1-3-8v-3l-9 1-1 5-4 8h-2l3-9z" fill="#FEFEFE"/>
<path transform="translate(684,168)" d="m0 0h37l1 1v5h-37z" fill="#165C2A"/>
<path transform="translate(745,236)" d="m0 0h40l-2 4-2 2h-32l-4-5z" fill="#165C2A"/>
<path transform="translate(686,175)" d="m0 0h36v6h-35z" fill="#165C2A"/>
<path transform="translate(682,161)" d="m0 0h36l1 6h-36z" fill="#165C2A"/>
<path transform="translate(784,182)" d="m0 0h31l-1 5-1 1h-36l3-3z" fill="#165C2A"/>
<path transform="translate(688,182)" d="m0 0h34v6h-32z" fill="#165C2A"/>
<path transform="translate(547,930)" d="m0 0h5l3 4-1 7-6 5-4-1 5-2 1-9-6-1-1 23-1 3-4 1 1-23 1-5z" fill="#FEFEFE"/>
<path transform="translate(895,870)" d="m0 0h3l-2 5-12 23 13-3v3l-15 3h-4l2-5 12-23-12 3v-3z" fill="#FEFEFE"/>
<path transform="translate(746,121)" d="m0 0h27l3 6h-33l2-5z" fill="#165C2A"/>
<path transform="translate(790,175)" d="m0 0h28l-2 6h-30z" fill="#165C2A"/>
<path transform="translate(970,857)" d="m0 0h3v3h-8v9h6l-1 3-5 1-1 11 7-2v3l-12 2 2-28z" fill="#FEFEFE"/>
<path transform="translate(872,874)" d="m0 0h5v2l-7 2v8h5v2l-6 1v11l7-1-1 3-11 1 1-27z" fill="#FEFEFE"/>
<path transform="translate(950,860)" d="m0 0h6v3h-6l-5 3-3 6v11l2 3h7l4-1-1 3-5 2-8-1-4-5-1-8 3-8 4-5z" fill="#FEFEFE"/>
<path transform="translate(641,914)" d="m0 0 1 3-7 2-1 8 6-1v3l-5 1-2 11 8-1v2l-8 2h-4l1-27 5-2z" fill="#FEFEFE"/>
<path transform="translate(794,168)" d="m0 0h25v5l-1 1h-26z" fill="#165C2A"/>
<path transform="translate(708,902)" d="m0 0h7l-1 3-7 1v5l7 5 2 3-1 7-4 4-9 2-1-3 8-1 2-2v-5l-9-8 1-7z" fill="#FEFEFE"/>
<path transform="translate(747,163)" d="m0 0 1 2-1 2v9l5 8 5 3h13l8-2v2l33 1v1l-41 1-8 1-11-2-2-4-4-4-2-7 2-9z" fill="#FEFEFE"/>
<path transform="translate(797,161)" d="m0 0h24l-1 6h-25z" fill="#165C2A"/>
<path transform="translate(820,883)" d="m0 0h3v3h-7l-1 20-1 6-4 1 1-23 1-3-7 2v-3z" fill="#FEFEFE"/>
<path transform="translate(753,158)" d="m0 0 7 1 16 1v1l-12 1 1 5h11v1h-11l-1 6h8v1l-10 1-7 1v2l10 2v2h-7l-6-5-1-6 8 2 2-1 1-7-2-4-7-1-3-1z" fill="#FEFEFE"/>
<path transform="translate(737,256)" d="m0 0h29l-1 3-4 3h-19z" fill="#165C2A"/>
<path transform="translate(751,895)" d="m0 0h2v3l-7 1-1 9 6-1v3h-6l-1 14-4 1 1-28z" fill="#FEFEFE"/>
<path transform="translate(583,924)" d="m0 0h5l-2 25 8-1v2l-8 2h-5z" fill="#FEFEFE"/>
<path transform="translate(850,878)" d="m0 0h5l-2 25 8-1v2l-8 2h-5z" fill="#FEFEFE"/>
<path transform="translate(647,913)" d="m0 0h4l-1 27-5 1z" fill="#FEFEFE"/>
<path transform="translate(755,115)" d="m0 0h9l6 3v2h-22l4-4z" fill="#165C2A"/>
<path transform="translate(763,161)" d="m0 0h15v6h-13z" fill="#165C2A"/>
<path transform="translate(762,175)" d="m0 0h11l-5 5-3 1h-7l-4-4 2-1z" fill="#165C2A"/>
<path transform="translate(718,236)" d="m0 0h12l3 4v2h-11l-4-5z" fill="#165C2A"/>
<path transform="translate(765,168)" d="m0 0h12l-2 5-1 1h-10z" fill="#165C2A"/>
<path transform="translate(713,229)" d="m0 0 7 1 6 1 3 1v3h-13l-3-4z" fill="#165C2A"/>
<path transform="translate(748,105)" d="m0 0 4 1-11 6-7 6-4 4-3-2v-2l4 1 2-4 11-8z" fill="#FEFEFE"/>
<path transform="translate(907,878)" d="m0 0 1 3v4l-2 1-4 11-4 1 5-13 3-6z" fill="#FEFEFE"/>
<path transform="translate(741,182)" d="m0 0h6l5 6h-11z" fill="#165C2A"/>
<path transform="translate(829,895)" d="m0 0 4 1v2h-4l-1 5-4 8h-2l3-9 3-6z" fill="#FEFEFE"/>
<path transform="translate(745,263)" d="m0 0h13v2l-4 3-6-1z" fill="#165C2A"/>
<path transform="translate(834,886)" d="m0 0 2 3 1 6-7 1z" fill="#165C2A"/>
<path transform="translate(567,932)" d="m0 0 2 4 1 5-7 1z" fill="#165C2A"/>
<path transform="translate(910,873)" d="m0 0 2 1 1 8-6 1z" fill="#165C2A"/>
<path transform="translate(687,911)" d="m0 0 2 2 1 7-6 1z" fill="#165C2A"/>
<path transform="translate(741,161)" d="m0 0h6l-2 6h-4z" fill="#165C2A"/>
</svg>
